<svg width="20" height="18" viewBox="0 0 20 18" fill="none" xmlns="http://www.w3.org/2000/svg">
<path d="M18.344 4.38875L11.076 0.336754C10.669 0.115759 10.2132 0 9.75 0C9.28684 0 8.83103 0.115759 8.424 0.336754L1.156 4.38875C0.432 4.79175 0 5.48775 0 6.24875C0 7.00975 0.433 7.70575 1.156 8.10875L2.5 8.85775V14.1588C2.5 14.7748 2.816 15.3518 3.327 15.6658C5.307 16.8838 7.528 17.4918 9.75 17.4918C11.972 17.4918 14.193 16.8828 16.175 15.6648C16.429 15.5044 16.638 15.282 16.7824 15.0185C16.9267 14.755 17.0016 14.4592 17 14.1588V8.85775L18.344 8.10875C19.068 7.70575 19.5 7.00975 19.5 6.24875C19.5 5.48775 19.067 4.79175 18.344 4.38875ZM15.5 14.1598C15.5 14.2558 15.455 14.3478 15.388 14.3888C13.6938 15.4362 11.7413 15.9911 9.7495 15.9911C7.75765 15.9911 5.80518 15.4362 4.111 14.3888C4.046 14.3478 4.001 14.2558 4.001 14.1598V9.69575L8.425 12.1618C8.828 12.3868 9.289 12.4978 9.751 12.4978C10.213 12.4978 10.674 12.3868 11.077 12.1618L15.501 9.69575L15.5 14.1598ZM17.613 6.79975L10.345 10.8518C10.1618 10.9497 9.95725 11.001 9.7495 11.001C9.54175 11.001 9.33721 10.9497 9.154 10.8518L1.886 6.79975C1.64 6.66275 1.499 6.46275 1.499 6.24975C1.499 6.03675 1.64 5.83675 1.886 5.69975L9.154 1.64775C9.33721 1.5498 9.54175 1.49855 9.7495 1.49855C9.95725 1.49855 10.1618 1.5498 10.345 1.64775L17.613 5.69975C17.859 5.83675 18 6.03675 18 6.24975C18 6.46275 17.859 6.66275 17.613 6.79975Z" fill="black"/>
</svg>
