<svg width="123" height="46" viewBox="0 0 123 46" fill="none" xmlns="http://www.w3.org/2000/svg">
<path d="M13.5001 21.5831C13.8864 21.8426 14.542 22.0815 15.6678 22.1802C16.7423 22.2744 17.3409 22.0984 17.6334 21.9328C17.8865 21.7895 17.9371 21.6474 17.9549 21.5484C18.012 21.2318 17.7796 20.5055 17.0211 20.1475C16.4365 19.8716 15.2877 19.7642 13.7388 21.3311C13.6599 21.411 13.5803 21.4949 13.5001 21.5831Z" fill="#0AB965"/>
<path fill-rule="evenodd" clip-rule="evenodd" d="M34.6182 0H0V28.1299C0 37.7784 7.74954 45.6 17.3091 45.6C26.8686 45.6 34.6182 37.7784 34.6182 28.1299V0ZM10.9561 13.6488C11.4657 11.9041 12.1269 9.91509 12.8705 7.6987H15.9658L15.8428 8.0651C15.0048 10.561 14.2854 12.7037 13.746 14.5507C13.3364 15.9533 13.0487 17.1271 12.8908 18.1058C14.7403 16.7771 16.6395 16.602 18.2156 17.3457C19.9544 18.1664 21.1792 20.1404 20.8225 22.1202C20.6335 23.1695 20.0095 24.0746 19.0165 24.6368C18.0629 25.1768 16.8439 25.3647 15.4254 25.2403C14.0111 25.1163 12.7499 24.778 11.7715 24.0614C10.8103 25.7812 9.82557 28.1567 8.90691 31.387H5.86749C7.09141 26.831 8.50469 23.5522 9.99805 21.2774C9.84588 20.6058 9.8073 19.8935 9.84146 19.1718C9.91609 17.5948 10.347 15.7344 10.9561 13.6488ZM25.6491 31.387L18.1256 7.6987H21.2272L28.7507 31.387H25.6491Z" fill="#0AB965"/>
<path d="M47.5062 20.098C47.4804 19.7341 47.4504 19.3745 47.4161 19.0193C47.3903 18.6554 47.3603 18.3045 47.326 17.9667H43.709C43.5117 18.3045 43.3143 18.6511 43.1169 19.0063C42.9281 19.3529 42.7351 19.7167 42.5377 20.098H40.8C41.3234 19.1796 41.8212 18.3132 42.2931 17.4988C42.7737 16.6844 43.2371 15.909 43.6833 15.1726C44.1381 14.4361 44.5843 13.7344 45.0219 13.0672C45.4682 12.3915 45.9144 11.733 46.3606 11.0919H47.8666C48.1412 12.3828 48.3772 13.795 48.5746 15.3285C48.7719 16.8533 48.9607 18.4432 49.1409 20.098H47.5062ZM46.7596 12.8073C46.4335 13.3185 46.0688 13.8946 45.6655 14.5358C45.2708 15.1682 44.8503 15.8787 44.4041 16.6671H47.1973C47.1458 16.0519 47.0814 15.4238 47.0042 14.7827C46.9355 14.1329 46.854 13.4744 46.7596 12.8073Z" fill="black"/>
<path d="M51.7056 16.0303C51.903 15.831 52.1175 15.6101 52.3492 15.3675C52.5809 15.1162 52.8083 14.865 53.0314 14.6137C53.2631 14.3625 53.4819 14.1242 53.6879 13.899C53.8938 13.6651 54.0654 13.4658 54.2027 13.3012H56.0305C55.8417 13.5264 55.6229 13.7734 55.3741 14.0419C55.1338 14.3105 54.8806 14.5878 54.6146 14.8737C54.3572 15.1509 54.0998 15.4238 53.8423 15.6924C53.5935 15.9523 53.3661 16.1862 53.1601 16.3942C53.4261 16.6194 53.7007 16.8837 53.9839 17.1869C54.2757 17.4815 54.5589 17.7977 54.8335 18.1356C55.1166 18.4648 55.3784 18.8027 55.6186 19.1493C55.8589 19.4872 56.0606 19.8034 56.2236 20.098H54.4216C54.2585 19.838 54.0654 19.5651 53.8423 19.2792C53.6278 18.9933 53.4004 18.7161 53.1601 18.4475C52.9198 18.1703 52.6753 17.9103 52.4264 17.6678C52.1776 17.4252 51.9373 17.2172 51.7056 17.044V20.098H50.1481V13.3012H51.7056V16.0303Z" fill="black"/>
<path d="M59.7192 18.9933C60.1997 18.9933 60.5644 18.9673 60.8133 18.9153V17.1739C60.7275 17.1479 60.6031 17.1219 60.44 17.0959C60.277 17.0699 60.0968 17.057 59.8994 17.057C59.7278 17.057 59.5519 17.0699 59.3717 17.0959C59.2 17.1219 59.0413 17.1696 58.8954 17.2389C58.7581 17.3082 58.6465 17.4078 58.5607 17.5378C58.4749 17.6591 58.432 17.815 58.432 18.0056C58.432 18.3782 58.5479 18.6381 58.7796 18.7854C59.0112 18.924 59.3245 18.9933 59.7192 18.9933ZM59.5905 13.1322C60.1053 13.1322 60.5387 13.1972 60.8905 13.3272C61.2423 13.4571 61.5212 13.6391 61.7272 13.873C61.9417 14.1069 62.0919 14.3928 62.1777 14.7307C62.2721 15.0599 62.3193 15.4238 62.3193 15.8224V19.942C62.079 19.994 61.7143 20.0546 61.2252 20.124C60.7446 20.2019 60.1997 20.2409 59.5905 20.2409C59.1872 20.2409 58.8182 20.2019 58.4835 20.124C58.1488 20.046 57.8614 19.9204 57.6211 19.7471C57.3894 19.5738 57.2049 19.3485 57.0676 19.0713C56.9389 18.7941 56.8745 18.4518 56.8745 18.0446C56.8745 17.6548 56.9475 17.3255 57.0933 17.057C57.2478 16.7884 57.4538 16.5718 57.7112 16.4072C57.9686 16.2339 58.2647 16.1126 58.5993 16.0433C58.9426 15.9653 59.2987 15.9263 59.6677 15.9263C59.8393 15.9263 60.0195 15.9393 60.2083 15.9653C60.3971 15.9826 60.5988 16.0173 60.8133 16.0693V15.8094C60.8133 15.6274 60.7918 15.4541 60.7489 15.2895C60.706 15.1249 60.6288 14.982 60.5172 14.8607C60.4143 14.7307 60.2727 14.6311 60.0925 14.5618C59.9208 14.4925 59.702 14.4578 59.436 14.4578C59.0756 14.4578 58.7452 14.4838 58.4449 14.5358C58.1445 14.5878 57.9 14.6484 57.7112 14.7177L57.5181 13.4441C57.7155 13.3748 58.003 13.3055 58.3805 13.2362C58.7581 13.1669 59.1614 13.1322 59.5905 13.1322Z" fill="black"/>
<path d="M63.4028 18.8114H64.1751C64.4412 18.4562 64.6471 18.062 64.793 17.6288C64.9474 17.1869 65.059 16.7277 65.1276 16.2512C65.1963 15.766 65.2392 15.2722 65.2564 14.7697C65.2735 14.2672 65.2864 13.7777 65.295 13.3012H70.1219V18.8114H71.1516V22.0213H69.7615V20.098H64.7801V22.0213H63.4028V18.8114ZM68.5644 18.8114V14.6007H66.7366C66.7195 14.956 66.698 15.3198 66.6723 15.6924C66.6465 16.0563 66.5993 16.4202 66.5307 16.784C66.462 17.1393 66.3676 17.4901 66.2475 17.8367C66.1359 18.1746 65.9858 18.4995 65.797 18.8114H68.5644Z" fill="black"/>
<path d="M71.9988 16.7321C71.9988 16.1343 72.0846 15.6101 72.2562 15.1596C72.4364 14.709 72.6724 14.3365 72.9641 14.0419C73.2559 13.7387 73.5906 13.5134 73.9681 13.3662C74.3457 13.2102 74.7319 13.1322 75.1266 13.1322C76.0534 13.1322 76.7742 13.4225 77.2891 14.0029C77.8125 14.5834 78.0742 15.4498 78.0742 16.6021C78.0742 16.6887 78.0699 16.7884 78.0614 16.901C78.0614 17.005 78.0571 17.1003 78.0485 17.1869H73.6077C73.6506 17.7327 73.8394 18.1573 74.1741 18.4605C74.5173 18.7551 75.0108 18.9023 75.6543 18.9023C76.0319 18.9023 76.3752 18.8677 76.6841 18.7984C77.0016 18.7291 77.2505 18.6554 77.4307 18.5775L77.6366 19.864C77.5508 19.9074 77.4306 19.955 77.2762 20.007C77.1303 20.0503 76.9587 20.0893 76.7613 20.124C76.5725 20.1673 76.3666 20.2019 76.1435 20.2279C75.9204 20.2539 75.693 20.2669 75.4613 20.2669C74.8692 20.2669 74.3543 20.1803 73.9167 20.007C73.479 19.8251 73.1186 19.5781 72.8354 19.2662C72.5522 18.9457 72.342 18.5731 72.2047 18.1486C72.0674 17.7154 71.9988 17.2432 71.9988 16.7321ZM76.5168 16.0303C76.5168 15.8137 76.4867 15.6101 76.4267 15.4195C76.3666 15.2202 76.2765 15.0513 76.1563 14.9126C76.0448 14.7654 75.9032 14.6527 75.7316 14.5748C75.5685 14.4881 75.3712 14.4448 75.1395 14.4448C74.8992 14.4448 74.689 14.4925 74.5088 14.5878C74.3286 14.6744 74.1741 14.7914 74.0454 14.9386C73.9252 15.0859 73.8308 15.2549 73.7622 15.4455C73.6935 15.6361 73.6464 15.831 73.6206 16.0303H76.5168Z" fill="black"/>
<path d="M81.2959 15.6404C81.2702 16.0043 81.2444 16.3855 81.2187 16.784C81.1929 17.1739 81.1715 17.5638 81.1543 17.9537C81.1372 18.3435 81.12 18.7204 81.1028 19.0843C81.0857 19.4482 81.0728 19.7861 81.0642 20.098H79.5582C79.5754 19.5955 79.6011 19.054 79.6354 18.4735C79.6698 17.8843 79.7084 17.2909 79.7513 16.6931C79.8028 16.0866 79.8543 15.4931 79.9057 14.9126C79.9572 14.3322 80.013 13.795 80.0731 13.3012H81.4246C81.7507 13.8297 82.0811 14.4535 82.4157 15.1726C82.7504 15.883 83.1237 16.6931 83.5356 17.6028C83.9647 16.6757 84.3551 15.8397 84.7069 15.0946C85.0587 14.3408 85.372 13.743 85.6466 13.3012H87.011C87.071 13.795 87.1268 14.3322 87.1783 14.9126C87.2384 15.4931 87.2899 16.0866 87.3328 16.6931C87.3757 17.2909 87.4143 17.8843 87.4486 18.4735C87.4829 19.054 87.5087 19.5955 87.5258 20.098H85.9812C85.9641 19.3875 85.934 18.6554 85.8911 17.9017C85.8568 17.1393 85.8139 16.3855 85.7624 15.6404C85.6337 15.9003 85.4921 16.1906 85.3376 16.5111C85.1918 16.8317 85.0459 17.1566 84.9 17.4858C84.7541 17.815 84.6125 18.1356 84.4752 18.4475C84.3379 18.7507 84.2178 19.0193 84.1148 19.2532H82.9564C82.8534 19.0193 82.729 18.7464 82.5831 18.4345C82.4458 18.1226 82.3042 17.802 82.1583 17.4728C82.0124 17.1436 81.8623 16.823 81.7078 16.5111C81.5619 16.1906 81.4246 15.9003 81.2959 15.6404Z" fill="black"/>
<path d="M95.2369 13.3012V20.098H93.6923C93.6923 19.6041 93.6923 19.1146 93.6923 18.6294C93.7009 18.1443 93.7052 17.6937 93.7052 17.2779C93.7138 16.862 93.7181 16.5025 93.7181 16.1992C93.7267 15.8873 93.7309 15.6577 93.7309 15.5105C93.4735 15.8483 93.2075 16.2209 92.9329 16.6281C92.6583 17.0353 92.3837 17.4425 92.1091 17.8497C91.8431 18.2569 91.5899 18.6554 91.3497 19.0453C91.1094 19.4352 90.8992 19.7861 90.7189 20.098H89.3417V13.3012H90.8734C90.8734 13.8037 90.8691 14.2845 90.8605 14.7437C90.8605 15.1942 90.8605 15.6058 90.8605 15.9783C90.8605 16.3508 90.8562 16.6757 90.8477 16.953C90.8477 17.2302 90.8477 17.4425 90.8477 17.5898C91.0879 17.2172 91.3368 16.836 91.5942 16.4461C91.8517 16.0476 92.1091 15.6621 92.3665 15.2895C92.6325 14.9083 92.8943 14.5488 93.1517 14.2109C93.4091 13.873 93.658 13.5698 93.8983 13.3012H95.2369Z" fill="black"/>
<path d="M100.196 17.5768C100.094 17.5768 99.9905 17.5768 99.8876 17.5768C99.7846 17.5768 99.6859 17.5724 99.5915 17.5638C99.3169 17.9797 99.0638 18.4085 98.8321 18.8504C98.6004 19.2836 98.3859 19.6994 98.1885 20.098H96.5924C96.8241 19.5608 97.0815 19.0453 97.3647 18.5515C97.6479 18.0576 97.9139 17.6374 98.1628 17.2909C97.7423 17.1089 97.4333 16.8663 97.236 16.5631C97.0472 16.2512 96.9528 15.8873 96.9528 15.4715C96.9528 15.0903 97.0215 14.7567 97.1588 14.4708C97.3046 14.1762 97.5063 13.9336 97.7637 13.743C98.0212 13.5438 98.3301 13.3965 98.6905 13.3012C99.0509 13.1972 99.4499 13.1452 99.8876 13.1452C100.394 13.1452 100.883 13.1755 101.355 13.2362C101.836 13.2968 102.226 13.3662 102.526 13.4441V20.098H100.969V17.5768H100.196ZM100.969 14.4448C100.874 14.4275 100.729 14.4145 100.531 14.4058C100.334 14.3885 100.132 14.3798 99.9262 14.3798C98.9737 14.3798 98.4974 14.735 98.4974 15.4455C98.4974 15.6361 98.5318 15.7964 98.6004 15.9263C98.6776 16.0476 98.7806 16.1472 98.9093 16.2252C99.038 16.3032 99.1882 16.3595 99.3598 16.3942C99.5315 16.4202 99.716 16.4332 99.9133 16.4332H100.969V14.4448Z" fill="black"/>
<path d="M48.4716 25.8811L47.3389 30.6895C47.7679 30.6549 48.1627 30.5552 48.5231 30.3906C48.8921 30.226 49.2053 30.0137 49.4627 29.7538C49.7287 29.4852 49.9347 29.182 50.0805 28.8441C50.2264 28.4976 50.2994 28.1337 50.2994 27.7525C50.2994 27.1547 50.1363 26.7041 49.8102 26.4009C49.4927 26.089 49.0465 25.9157 48.4716 25.8811ZM45.1764 33.0937L45.4338 31.9891C44.4384 31.8765 43.6618 31.5646 43.104 31.0534C42.5463 30.5336 42.2674 29.8145 42.2674 28.8961C42.2674 28.307 42.3918 27.7525 42.6407 27.2326C42.8895 26.7128 43.2328 26.258 43.6704 25.8681C44.1166 25.4695 44.6401 25.1576 45.2408 24.9324C45.8414 24.6985 46.4979 24.5728 47.2101 24.5555L47.4547 23.5029H49.0379L48.7934 24.5555C49.2825 24.6075 49.7244 24.7158 50.1192 24.8804C50.5139 25.045 50.8443 25.2573 51.1103 25.5172C51.3849 25.7771 51.5951 26.076 51.741 26.4139C51.8869 26.7518 51.9598 27.12 51.9598 27.5185C51.9598 28.1423 51.8354 28.7228 51.5865 29.26C51.3463 29.7971 51.0073 30.2693 50.5697 30.6765C50.132 31.0751 49.6086 31.3913 48.9993 31.6252C48.3986 31.8591 47.7379 31.9804 47.0171 31.9891L46.7596 33.0937H45.1764ZM45.7556 30.6635L46.9012 25.8681C46.4636 25.8941 46.0646 25.9937 45.7041 26.167C45.3437 26.3316 45.0305 26.5482 44.7645 26.8168C44.4985 27.0767 44.2925 27.3799 44.1467 27.7265C44.0008 28.0644 43.9278 28.4239 43.9278 28.8051C43.9278 29.4029 44.0909 29.8535 44.417 30.1567C44.743 30.4599 45.1893 30.6289 45.7556 30.6635Z" fill="black"/>
<path d="M58.306 26.2969V33.0937H56.7614C56.7614 32.5999 56.7614 32.1104 56.7614 31.6252C56.77 31.14 56.7743 30.6895 56.7743 30.2737C56.7829 29.8578 56.7871 29.4982 56.7871 29.195C56.7957 28.8831 56.8 28.6535 56.8 28.5062C56.5426 28.8441 56.2766 29.2167 56.002 29.6239C55.7274 30.0311 55.4528 30.4383 55.1782 30.8455C54.9121 31.2527 54.659 31.6512 54.4187 32.0411C54.1785 32.4309 53.9682 32.7818 53.788 33.0937H52.4107V26.2969H53.9425C53.9425 26.7994 53.9382 27.2803 53.9296 27.7395C53.9296 28.19 53.9296 28.6015 53.9296 28.9741C53.9296 29.3466 53.9253 29.6715 53.9167 29.9488C53.9167 30.226 53.9167 30.4383 53.9167 30.5855C54.157 30.213 54.4059 29.8318 54.6633 29.4419C54.9207 29.0434 55.1782 28.6578 55.4356 28.2853C55.7016 27.9041 55.9634 27.5445 56.2208 27.2066C56.4782 26.8688 56.7271 26.5655 56.9674 26.2969H58.306Z" fill="black"/>
<path d="M65.9429 33.0937H64.3854V30.2477H61.8497V33.0937H60.2922V26.2969H61.8497V28.9481H64.3854V26.2969H65.9429V33.0937Z" fill="black"/>
<path d="M70.2906 31.9891C70.7712 31.9891 71.1359 31.9631 71.3847 31.9111V30.1697C71.2989 30.1437 71.1745 30.1177 71.0115 30.0917C70.8484 30.0657 70.6682 30.0527 70.4708 30.0527C70.2992 30.0527 70.1233 30.0657 69.9431 30.0917C69.7715 30.1177 69.6127 30.1654 69.4668 30.2347C69.3295 30.304 69.218 30.4036 69.1322 30.5336C69.0464 30.6549 69.0035 30.8108 69.0035 31.0014C69.0035 31.374 69.1193 31.6339 69.351 31.7812C69.5827 31.9198 69.8959 31.9891 70.2906 31.9891ZM70.1619 26.128C70.6768 26.128 71.1101 26.193 71.462 26.3229C71.8138 26.4529 72.0927 26.6348 72.2986 26.8688C72.5132 27.1027 72.6633 27.3886 72.7491 27.7265C72.8435 28.0557 72.8907 28.4196 72.8907 28.8181V32.9378C72.6505 32.9898 72.2858 33.0504 71.7966 33.1197C71.3161 33.1977 70.7712 33.2367 70.1619 33.2367C69.7586 33.2367 69.3896 33.1977 69.0549 33.1197C68.7203 33.0418 68.4328 32.9161 68.1925 32.7428C67.9608 32.5696 67.7764 32.3443 67.6391 32.0671C67.5103 31.7898 67.446 31.4476 67.446 31.0404C67.446 30.6505 67.5189 30.3213 67.6648 30.0527C67.8193 29.7841 68.0252 29.5675 68.2826 29.4029C68.5401 29.2297 68.8361 29.1084 69.1708 29.0391C69.514 28.9611 69.8702 28.9221 70.2392 28.9221C70.4108 28.9221 70.591 28.9351 70.7798 28.9611C70.9686 28.9784 71.1702 29.0131 71.3847 29.065V28.8051C71.3847 28.6232 71.3633 28.4499 71.3204 28.2853C71.2775 28.1207 71.2002 27.9777 71.0887 27.8564C70.9857 27.7265 70.8441 27.6268 70.6639 27.5575C70.4923 27.4882 70.2735 27.4536 70.0075 27.4536C69.6471 27.4536 69.3167 27.4796 69.0163 27.5315C68.716 27.5835 68.4714 27.6442 68.2826 27.7135L68.0896 26.4399C68.2869 26.3706 68.5744 26.3013 68.952 26.232C69.3296 26.1627 69.7329 26.128 70.1619 26.128Z" fill="black"/>
<path d="M80.4488 33.0937H78.8913V30.2477H76.3556V33.0937H74.7981V26.2969H76.3556V28.9481H78.8913V26.2969H80.4488V33.0937Z" fill="black"/>
<path d="M82.0548 29.7018C82.0548 29.1993 82.1321 28.7315 82.2865 28.2983C82.441 27.8564 82.6598 27.4752 82.943 27.1547C83.2347 26.8341 83.5866 26.5828 83.9985 26.4009C84.4104 26.219 84.8737 26.128 85.3886 26.128C86.0236 26.128 86.6243 26.245 87.1907 26.4789L86.856 27.7655C86.6758 27.6875 86.4699 27.6225 86.2382 27.5705C86.0151 27.5185 85.7748 27.4926 85.5173 27.4926C84.9081 27.4926 84.4447 27.6875 84.1272 28.0774C83.8097 28.4586 83.6509 29.0001 83.6509 29.7018C83.6509 30.3776 83.8011 30.9148 84.1015 31.3133C84.4018 31.7032 84.9081 31.8981 85.6203 31.8981C85.8863 31.8981 86.1481 31.8721 86.4055 31.8201C86.6629 31.7682 86.886 31.7032 87.0748 31.6252L87.2936 32.9248C87.122 33.0114 86.8603 33.0894 86.5085 33.1587C86.1652 33.228 85.8091 33.2627 85.4401 33.2627C84.8652 33.2627 84.3632 33.176 83.9341 33.0028C83.5136 32.8208 83.1618 32.5739 82.8786 32.262C82.604 31.9414 82.3981 31.5646 82.2608 31.1314C82.1235 30.6895 82.0548 30.213 82.0548 29.7018Z" fill="black"/>
<path d="M94.3947 26.2969V33.0937H92.8501C92.8501 32.5999 92.8501 32.1104 92.8501 31.6252C92.8587 31.14 92.863 30.6895 92.863 30.2737C92.8716 29.8578 92.8759 29.4982 92.8759 29.195C92.8844 28.8831 92.8887 28.6535 92.8887 28.5062C92.6313 28.8441 92.3653 29.2167 92.0907 29.6239C91.8161 30.0311 91.5415 30.4383 91.2669 30.8455C91.0009 31.2527 90.7477 31.6512 90.5075 32.0411C90.2672 32.4309 90.057 32.7818 89.8767 33.0937H88.4995V26.2969H90.0312C90.0312 26.7994 90.0269 27.2803 90.0183 27.7395C90.0183 28.19 90.0183 28.6015 90.0183 28.9741C90.0183 29.3466 90.014 29.6715 90.0055 29.9488C90.0055 30.226 90.0055 30.4383 90.0055 30.5855C90.2457 30.213 90.4946 29.8318 90.752 29.4419C91.0095 29.0434 91.2669 28.6578 91.5243 28.2853C91.7904 27.9041 92.0521 27.5445 92.3095 27.2066C92.5669 26.8688 92.8158 26.5655 93.0561 26.2969H94.3947Z" fill="black"/>
<path d="M96.0076 29.7018C96.0076 29.1993 96.0849 28.7315 96.2393 28.2983C96.3938 27.8564 96.6126 27.4752 96.8958 27.1547C97.1876 26.8341 97.5394 26.5828 97.9513 26.4009C98.3632 26.219 98.8266 26.128 99.3414 26.128C99.9764 26.128 100.577 26.245 101.143 26.4789L100.809 27.7655C100.629 27.6875 100.423 27.6225 100.191 27.5705C99.9679 27.5185 99.7276 27.4926 99.4701 27.4926C98.8609 27.4926 98.3975 27.6875 98.08 28.0774C97.7625 28.4586 97.6037 29.0001 97.6037 29.7018C97.6037 30.3776 97.7539 30.9148 98.0542 31.3133C98.3546 31.7032 98.8609 31.8981 99.5731 31.8981C99.8391 31.8981 100.101 31.8721 100.358 31.8201C100.616 31.7682 100.839 31.7032 101.028 31.6252L101.246 32.9248C101.075 33.0114 100.813 33.0894 100.461 33.1587C100.118 33.228 99.7619 33.2627 99.3929 33.2627C98.818 33.2627 98.316 33.176 97.8869 33.0028C97.4664 32.8208 97.1146 32.5739 96.8314 32.262C96.5568 31.9414 96.3509 31.5646 96.2136 31.1314C96.0763 30.6895 96.0076 30.213 96.0076 29.7018Z" fill="black"/>
<path d="M107.687 27.6095H105.512V33.0937H103.954V27.6095H101.792V26.2969H107.687V27.6095Z" fill="black"/>
<path d="M114.939 29.6888C114.939 30.226 114.862 30.7155 114.707 31.1574C114.553 31.5992 114.334 31.9761 114.051 32.288C113.767 32.5999 113.424 32.8425 113.021 33.0158C112.626 33.189 112.189 33.2757 111.708 33.2757C111.227 33.2757 110.79 33.189 110.395 33.0158C110 32.8425 109.661 32.5999 109.378 32.288C109.095 31.9761 108.872 31.5992 108.709 31.1574C108.554 30.7155 108.477 30.226 108.477 29.6888C108.477 29.1517 108.554 28.6665 108.709 28.2333C108.872 27.7915 109.095 27.4146 109.378 27.1027C109.67 26.7908 110.013 26.5525 110.408 26.3879C110.803 26.2146 111.236 26.128 111.708 26.128C112.18 26.128 112.613 26.2146 113.008 26.3879C113.411 26.5525 113.755 26.7908 114.038 27.1027C114.321 27.4146 114.54 27.7915 114.694 28.2333C114.857 28.6665 114.939 29.1517 114.939 29.6888ZM113.343 29.6888C113.343 29.0131 113.197 28.4802 112.905 28.0904C112.622 27.6918 112.223 27.4926 111.708 27.4926C111.193 27.4926 110.79 27.6918 110.498 28.0904C110.215 28.4802 110.073 29.0131 110.073 29.6888C110.073 30.3733 110.215 30.9148 110.498 31.3133C110.79 31.7118 111.193 31.9111 111.708 31.9111C112.223 31.9111 112.622 31.7118 112.905 31.3133C113.197 30.9148 113.343 30.3733 113.343 29.6888Z" fill="black"/>
<path d="M119.221 33.2237C118.972 33.2237 118.719 33.215 118.461 33.1977C118.204 33.1804 117.955 33.1587 117.715 33.1327C117.483 33.1067 117.264 33.0807 117.058 33.0547C116.852 33.0201 116.681 32.9854 116.543 32.9508V26.3879C116.681 26.3533 116.852 26.3229 117.058 26.2969C117.264 26.2623 117.483 26.2363 117.715 26.219C117.955 26.193 118.204 26.1757 118.461 26.167C118.719 26.1497 118.972 26.141 119.221 26.141C120.13 26.141 120.838 26.3099 121.345 26.6478C121.851 26.9771 122.104 27.4406 122.104 28.0384C122.104 28.3503 122.027 28.6275 121.872 28.8701C121.718 29.1127 121.516 29.2946 121.267 29.4159C121.576 29.5372 121.842 29.7278 122.065 29.9877C122.288 30.2477 122.4 30.6159 122.4 31.0924C122.4 31.7768 122.134 32.3053 121.602 32.6779C121.07 33.0417 120.276 33.2237 119.221 33.2237ZM119.259 29.0261C119.645 29.0261 119.963 28.9697 120.212 28.8571C120.469 28.7445 120.598 28.5192 120.598 28.1813C120.598 28.0167 120.555 27.8824 120.469 27.7785C120.392 27.6745 120.285 27.5922 120.147 27.5315C120.01 27.4709 119.851 27.4319 119.671 27.4146C119.491 27.3886 119.302 27.3756 119.105 27.3756C118.95 27.3756 118.77 27.3799 118.564 27.3886C118.367 27.3973 118.208 27.4102 118.088 27.4276V29.0261H119.259ZM118.088 31.9241C118.191 31.9414 118.358 31.9588 118.59 31.9761C118.83 31.9848 119.053 31.9891 119.259 31.9891C119.723 31.9891 120.105 31.9241 120.405 31.7942C120.714 31.6642 120.868 31.4173 120.868 31.0534C120.868 30.6982 120.727 30.4556 120.443 30.3256C120.169 30.187 119.808 30.1177 119.362 30.1177H118.088V31.9241Z" fill="black"/>
</svg>
