<svg width="20" height="15" viewBox="0 0 20 15" fill="none" xmlns="http://www.w3.org/2000/svg">
<path d="M6.68 12.0959C6.51214 12.0957 6.34915 12.0394 6.217 11.9359C4.808 10.8289 4 9.17389 4 7.39589C4 5.61789 4.808 3.96389 6.217 2.85589C6.29441 2.79502 6.38306 2.75 6.47787 2.72339C6.57269 2.69678 6.67182 2.68911 6.7696 2.70081C6.86738 2.71251 6.96189 2.74335 7.04775 2.79158C7.13361 2.83981 7.20913 2.90448 7.27 2.98189C7.33087 3.0593 7.37589 3.14795 7.4025 3.24276C7.42911 3.33758 7.43678 3.43671 7.42508 3.53449C7.41338 3.63227 7.38254 3.72678 7.33431 3.81264C7.28608 3.8985 7.22141 3.97402 7.144 4.03489C6.63255 4.43311 6.21874 4.94282 5.9341 5.52518C5.64946 6.10754 5.50151 6.74719 5.50151 7.39539C5.50151 8.04359 5.64946 8.68324 5.9341 9.2656C6.21874 9.84796 6.63255 10.3577 7.144 10.7559C7.26679 10.8523 7.35646 10.9845 7.4005 11.1343C7.44454 11.284 7.44076 11.4438 7.38968 11.5913C7.33861 11.7388 7.24279 11.8667 7.11557 11.9571C6.98836 12.0476 6.83609 12.0961 6.68 12.0959ZM13.284 11.9359C14.693 10.8289 15.501 9.17389 15.501 7.39589C15.501 5.61789 14.693 3.96389 13.284 2.85589C13.2066 2.79502 13.1179 2.75 13.0231 2.72339C12.9283 2.69678 12.8292 2.68911 12.7314 2.70081C12.6336 2.71251 12.5391 2.74335 12.4532 2.79158C12.3674 2.83981 12.2919 2.90448 12.231 2.98189C12.1701 3.0593 12.1251 3.14795 12.0985 3.24276C12.0719 3.33758 12.0642 3.43671 12.0759 3.53449C12.0876 3.63227 12.1185 3.72678 12.1667 3.81264C12.2149 3.8985 12.2796 3.97402 12.357 4.03489C12.8685 4.43311 13.2823 4.94282 13.5669 5.52518C13.8515 6.10754 13.9995 6.74719 13.9995 7.39539C13.9995 8.04359 13.8515 8.68324 13.5669 9.2656C13.2823 9.84796 12.8685 10.3577 12.357 10.7559C12.2005 10.8788 12.0993 11.0589 12.0756 11.2564C12.0518 11.454 12.1076 11.6529 12.2305 11.8094C12.3534 11.9659 12.5335 12.0671 12.7311 12.0908C12.9286 12.1146 13.1275 12.0588 13.284 11.9359Z" fill="#0AB965"/>
<path d="M9.75 5.64593C8.785 5.64593 8 6.43093 8 7.39593C8 8.36093 8.785 9.14593 9.75 9.14593C10.715 9.14593 11.5 8.36093 11.5 7.39593C11.5 6.43093 10.715 5.64593 9.75 5.64593ZM9.5 7.39593C9.5 7.32962 9.52634 7.26604 9.57322 7.21915C9.62011 7.17227 9.6837 7.14593 9.75 7.14593C9.8163 7.14593 9.87989 7.17227 9.92678 7.21915C9.97366 7.26604 10 7.32962 10 7.39593C10 7.67093 9.5 7.67093 9.5 7.39593ZM4.175 1.31993C2.475 2.86893 1.5 5.08293 1.5 7.39593C1.5 9.70893 2.475 11.9219 4.175 13.4709C4.28759 13.5726 4.36667 13.706 4.40179 13.8535C4.43691 14.0011 4.42641 14.1558 4.37167 14.2972C4.31693 14.4387 4.22054 14.5602 4.09525 14.6457C3.96996 14.7311 3.82167 14.7766 3.67 14.7759C3.48319 14.7765 3.30298 14.7069 3.165 14.5809C1.153 12.7479 0 10.1299 0 7.39593C0 4.66193 1.153 2.04393 3.165 0.211928C3.23709 0.141929 3.32251 0.0871296 3.41619 0.0507838C3.50986 0.0144379 3.60989 -0.00271322 3.71032 0.000348212C3.81076 0.00340965 3.90955 0.0266215 4.00084 0.0686055C4.09213 0.11059 4.17406 0.170489 4.24175 0.244749C4.30944 0.319008 4.36152 0.406112 4.39489 0.500889C4.42827 0.595666 4.44226 0.696183 4.43603 0.796471C4.42981 0.89676 4.40349 0.994775 4.35865 1.0847C4.31381 1.17462 4.25136 1.25461 4.175 1.31993ZM19.5 7.39593C19.5001 8.74765 19.2188 10.0846 18.6739 11.3216C18.129 12.5586 17.3324 13.6686 16.335 14.5809C16.197 14.7069 16.0168 14.7765 15.83 14.7759C15.6786 14.776 15.5307 14.7303 15.4057 14.6448C15.2808 14.5592 15.1846 14.4378 15.13 14.2966C15.0753 14.1554 15.0647 14.0009 15.0995 13.8535C15.1343 13.7062 15.2129 13.5728 15.325 13.4709C17.025 11.9219 18 9.70793 18 7.39593C18 5.08393 17.025 2.86893 15.325 1.31993C15.2522 1.25361 15.1933 1.17361 15.1514 1.0845C15.1096 0.995391 15.0857 0.898913 15.0812 0.800576C15.072 0.601975 15.1421 0.407857 15.276 0.260927C15.4099 0.113997 15.5968 0.0262907 15.7954 0.0171014C15.994 0.00791213 16.1881 0.0779932 16.335 0.211928C17.3325 1.12396 18.1291 2.23377 18.674 3.47064C19.2189 4.70752 19.5002 6.04434 19.5 7.39593Z" fill="black"/>
</svg>
